<svg version="1.1" xmlns="http://www.w3.org/2000/svg" xmlns:xlink="http://www.w3.org/1999/xlink" width="547" height="465" viewBox="0,0,547,465"><g transform="translate(39.5,19.5)"><g data-paper-data="{&quot;isPaintingLayer&quot;:true}" fill-rule="nonzero" stroke-linecap="butt" stroke-linejoin="miter" stroke-miterlimit="10" stroke-dasharray="" stroke-dashoffset="0" style="mix-blend-mode: normal"><path d="M-38.5,55v-73.5h527.5v73.5z" fill="#4b971c" stroke="#000000" stroke-width="2"/><path d="M-10.75,347.25v-294.5h501.5v294.5z" fill="#828282" stroke="#000000" stroke-width="2"/><path d="M-21,444.5v-130h527.5v130z" fill="#4b971c" stroke="#000000" stroke-width="2"/><path d="M150.5,193.5c-1.71027,0 -2.83553,-0.585 -3.5759,-1.35481c-5.34927,0.41854 -10.42789,1.64141 -15.92283,2.32962c-6.72598,0.84239 -13.72579,0.52583 -20.50128,0.52519c-8.61379,-0.00081 -17.81238,0.14378 -26.37437,-1.00477c-5.13208,-0.68844 -10.27538,-1.61936 -15.19109,-3.24662c-0.88437,-0.29275 -9.32902,-4.2601 -10.07695,-4.25064c-2.43889,0.03084 -4.63117,1.53257 -6.94676,2.29886c0,0 -4.79683,1.41083 -6.20766,-3.386c-1.41083,-4.79683 3.386,-6.20766 3.386,-6.20766c3.35108,-0.90038 6.58343,-2.72974 10.05324,-2.70114c5.09157,0.04196 8.4859,3.25809 12.92305,4.74936c4.32395,1.45322 8.86724,2.22712 13.38852,2.83247c8.11452,1.08644 16.88731,0.91694 25.04603,0.91615c6.44098,-0.00063 13.11032,0.33993 19.49872,-0.47481c7.01397,-0.89452 13.4408,-2.52519 20.50128,-2.52519l5,6.5c0,0 0,5 -5,5z" fill="#ffe400" stroke="none" stroke-width="0.5"/><path d="M297,188.90177c0,4.79167 -5,4.79167 -5,4.79167c-13.16667,0 -29.33333,0 -42.5,0c-8.99609,0 -18.93741,-1.35115 -27.56326,1.23542c0,0 -4.78913,1.37688 -6.22587,-3.21271c-1.43674,-4.58958 3.35239,-5.96646 3.35239,-5.96646c9.81334,-2.73021 20.26354,-1.63958 30.43674,-1.63958c13.16667,0 26.33333,0 39.5,0h3c0,0 5,0 5,4.79167z" fill="#ffe400" stroke="none" stroke-width="0.5"/><path d="M393.48893,193.3326c-0.3326,4.98893 -5.32152,4.65633 -5.32152,4.65633l-5.02215,-0.33481c-8.61553,-0.57681 -17.01942,-0.60734 -25.64526,-0.65412c-3.01002,-0.01632 -6.07155,-0.65177 -9.02968,-0.09506c-2.69359,0.50693 -5.04438,2.14563 -7.56657,3.21845c0,0 -4.62339,1.90375 -6.52714,-2.71964c-1.90375,-4.62339 2.71964,-6.52714 2.71964,-6.52714c3.14448,-1.26052 6.10525,-3.14922 9.43343,-3.78155c3.59264,-0.68258 7.31345,-0.0772 10.97032,-0.09506c8.84035,-0.04316 17.48475,0.0903 26.31045,0.67626l5.02215,0.33481c0,0 4.98893,0.3326 4.65633,5.32152z" fill="#ffe400" stroke="none" stroke-width="0.5"/><path d="M485,194.5c0,5 -5,5 -5,5h-6c-8.13718,0 -17.42678,-0.92378 -25.49923,0.61819c-3.1064,0.59337 -6.06718,1.78787 -9.10077,2.68181c0,0 -4.8,1.4 -6.2,-3.4c-1.4,-4.8 3.4,-6.2 3.4,-6.2c3.36641,-0.97273 6.65518,-2.27214 10.09923,-2.91819c8.73305,-1.63819 18.47938,-0.78181 27.30077,-0.78181h6c0,0 5,0 5,5z" fill="#ffe400" stroke="none" stroke-width="0.5"/></g></g></svg>