<svg version="1.1" xmlns="http://www.w3.org/2000/svg" xmlns:xlink="http://www.w3.org/1999/xlink" width="48.7598" height="66.19894" viewBox="0,0,48.7598,66.19894"><g transform="translate(-216.40441,-135.90053)"><g data-paper-data="{&quot;isPaintingLayer&quot;:true}" fill-rule="nonzero" stroke="none" stroke-width="0.5" stroke-linecap="butt" stroke-linejoin="miter" stroke-miterlimit="10" stroke-dasharray="" stroke-dashoffset="0" style="mix-blend-mode: normal"><path d="M264.7403,195.46314h0.42391v1.42857c0,0.69036 -0.55964,1.25 -1.25,1.25c-0.34518,0 -0.65768,-0.13991 -0.88388,-0.36612l-0.53483,-0.53483c-1.08129,-0.10708 -1.08129,-1.24192 -1.08129,-1.24192l0.0481,-0.01374c-0.091,-0.32867 -0.17364,-0.63775 -0.24671,-0.9316c-0.22381,-0.45857 -0.45203,-0.91296 -0.68217,-1.36525c-0.1367,-0.09391 -0.25379,-0.21431 -0.34386,-0.35378l-1.15957,-1.73935l0.02325,-0.0155c-0.38417,-0.45172 -0.677,-0.94059 -0.7593,-1.44008c-0.01297,-0.00836 -0.02591,-0.01679 -0.03883,-0.02531c-0.88078,-0.58092 -0.50371,-2.08929 -1.07209,-2.97821c-0.38876,-0.60801 -1.39337,-0.37676 -2.09327,-0.55266c-2.41147,0.0194 -5.65622,-0.58245 -7.8232,0.70164c-2.17081,1.28635 -3.69862,3.78511 -6.47882,3.8424c-2.74295,0.05653 -4.04839,-2.02241 -6.37237,-2.35647c-0.10805,-0.01553 -0.21705,-0.02615 -0.32683,-0.03249c0.26209,0.31941 0.55605,0.62678 0.89616,0.91695c2.00324,1.70904 5.78796,1.70237 7.048,4.21583c1.3142,2.6215 0.09556,5.03859 -1.88751,6.56519c-0.15657,0.20532 -0.37526,0.36071 -0.62804,0.43813c-1.21172,0.7646 -2.61422,1.21558 -3.87752,1.22493c0,0 -1.25,0 -1.25,-1.25c0,-0.33159 0.08796,-0.57522 0.21722,-0.75422c-0.04594,-0.13016 -0.07093,-0.27021 -0.07093,-0.4161c0,-0.27621 0.08959,-0.53149 0.24129,-0.73838l0.46796,-0.65514c-0.57558,-1.36278 -2.23466,-2.11488 -3.19253,-3.21124c-1.82315,-2.08674 -4.18372,-3.85557 -5.55459,-6.35042c-1.13253,-2.06109 -0.88047,-3.80221 0.31226,-4.89613c-0.65374,-0.52232 -2.85433,1.0016 -3.15318,1.48093c-1.00318,1.60902 -1.32964,3.81533 -3.31555,4.76041c-1.10746,0.52703 -1.94694,0.65008 -2.54892,0.4828c-2.79651,-0.22918 -0.91749,-7.75073 1.66845,-9.01959l0.01458,-0.13123l0.13952,0.0155c-0.01458,-0.1251 -0.02916,-0.25021 -0.04374,-0.37531l0.16794,-0.08984l-0.02136,-0.01602l0.1157,-0.15426l-0.06477,-0.05552l0.87245,-1.01786c0.14745,-0.17413 0.34169,-0.30736 0.56331,-0.38029c0.05867,-0.16842 0.12687,-0.33321 0.20547,-0.49358l0.09886,-0.06617l-0.03555,-0.02666l0.86901,-1.15868c0.15233,-0.20776 0.3673,-0.36672 0.61709,-0.44906c0.40914,-1.11373 0.77154,-2.24781 1.19252,-3.36083c-0.00044,-0.04431 -0.00138,-0.08865 -0.00282,-0.13303v-0.11037l-0.14009,-0.01401l0.14491,-1.44915c0.05599,-0.63854 0.5921,-1.13937 1.24517,-1.13937c0.69036,0 1.25,0.55964 1.25,1.25v1.4629c-0.03299,1.58211 -0.48511,3.03105 -1.16505,4.40185c-0.69905,1.61248 -1.58705,3.19151 -2.11796,4.04638l-0.034,0.02306l0.01209,0.00864l-0.06999,0.09798l0.10198,0.05326c0.78114,-0.58329 1.66017,-0.95285 2.67671,-0.95505c1.67165,-0.00362 2.3885,0.6055 2.88082,1.46244c0.18788,-0.04346 0.38268,-0.07953 0.58401,-0.10789c1.57691,1.03262 2.33312,2.35559 3.06323,3.68097c0.74475,-0.11238 1.49182,-0.17144 2.23467,-0.04793c2.28258,0.37952 3.45755,2.23951 5.91599,2.32481c1.94397,0.06745 3.65919,-2.58067 5.22439,-3.4721c2.59685,-1.47899 5.8408,-1.137 8.7689,-1.06477c-0.00077,-0.0213 -0.00116,-0.04298 -0.00116,-0.06504c0,-0.3632 0.10553,-0.62087 0.25527,-0.80367c-0.21886,-0.87585 -1.07862,-1.02034 -2.06381,-1.95043c-1.10219,-1.04054 -3.26646,-2.96066 -4.65254,-4.77073c-0.51251,-0.41311 -1.01618,-0.8319 -1.50522,-1.26044l-1.53106,-0.97431c-0.35794,-0.21987 -0.59666,-0.615 -0.59666,-1.06587c0,-0.69036 0.55964,-1.25 1.25,-1.25c0.18032,0 0.35173,0.03818 0.50657,0.10691l1.72968,0.7207l-0.01437,0.0345c0.06852,0.01938 0.13662,0.04081 0.20425,0.06449c1.38519,0.48489 2.59805,1.90529 3.72513,3.37823l0.00004,-0.00008c1.89099,1.44761 3.79036,2.90288 5.4118,4.54612c1.18079,1.19667 1.51184,2.95735 2.34172,4.33052l0.20787,0.09239l-0.00621,0.01397c0.00799,0.00273 0.01598,0.00548 0.02395,0.00825l0.00806,-0.01039c0.02242,0.01248 0.04488,0.02484 0.0674,0.03709c0.36565,0.13215 0.71466,0.29914 1.03356,0.52467c0.99948,0.52124 1.79765,1.13758 1.50418,2.79835c0.39907,0.62422 0.73304,1.28441 0.97207,1.97684l-0.20641,0.02012l0.11977,0.4192c0.57096,2.01397 1.16954,3.00127 1.23133,4.45054z" fill="#3d3a01"/><path d="M231.54425,186.44769c-0.56882,-0.19364 -0.28303,-1.13018 -0.46321,-1.74048l-1.61263,-0.69113c-0.4596,-0.18473 -0.78408,-0.63461 -0.78408,-1.16028c0,-0.12008 0.01693,-0.2362 0.04854,-0.34611c-0.47082,-0.04146 -0.94752,-0.03209 -1.43518,0.09933l-0.00002,-0.00002c-0.91179,0.24571 -3.03641,1.53567 -4.10487,0.75967c-2.30645,-1.67513 -1.21472,-3.21414 0.47721,-4.26412c0.09095,-0.05644 0.18438,-0.10832 0.28001,-0.15578c0.43274,-1.15146 0.84318,-2.31938 1.10063,-3.50275c0.00871,-0.04005 0.01697,-0.08004 0.0248,-0.11997c-0.14803,-0.33037 -0.05698,-0.68989 0.13469,-1.04458c0.09746,-1.14459 0.11682,-2.23182 1.01986,-3.23836c1.15639,-1.28893 3.00019,-1.32729 4.39902,-2.14512c1.44961,-0.84752 1.16833,-1.40739 2.99567,-1.74767c1.89936,-0.35369 5.25306,1.05804 7.90328,2.57258c0.06576,-0.03489 0.13515,-0.06422 0.20846,-0.0873c0.94827,-0.29849 2.21296,-0.42214 2.97452,0.21688c0.39612,0.33238 -0.03485,0.93046 -0.25293,1.49386l-0.03274,0.287c0.0772,0.06127 0.15065,0.12113 0.2201,0.17939c0,0 0.83031,0.7117 0.272,1.58035c0.20075,0.36598 0.4261,0.72986 0.62604,1.04528c0.01459,-0.0005 0.02924,-0.00076 0.04395,-0.00076c0.12387,0 0.24354,0.01802 0.35652,0.05158l1.58157,0.43134l-0.01355,0.04968c0.09233,0.01446 0.18426,0.03257 0.27574,0.05486c1.82144,0.44387 3.18895,3.17913 4.33883,5.06728c0.30902,0.20843 0.6173,0.41922 0.92492,0.63306l1.20982,0.5377c0.43043,0.17986 0.7388,0.59354 0.76639,1.08229c0.25464,0.28568 0.52278,0.7964 0.10459,1.46551c-0.6625,1.06 -1.7225,0.3975 -1.7225,0.3975c-0.06058,-0.03796 -0.12159,-0.07614 -0.183,-0.11454l-1.56411,0.28438l-0.00546,-0.03003c-0.05791,0.01758 -0.1162,0.0341 -0.17491,0.04945c-0.67599,0.17677 -1.39848,0.02968 -2.12775,-0.12346l-1.21356,0.36407l-0.02066,-0.06887l-0.15701,0.10834c-0.14961,0.00052 -0.34141,0.00572 -0.56066,0.01096c-0.10543,0.58362 -0.61604,1.02632 -1.23004,1.02632h-0.9518c-0.40524,0.61775 -0.75628,1.27496 -1.30057,1.74175c-3.40107,2.91682 -5.87491,1.81046 -9.10803,0.18783c-0.33051,-0.00396 -0.64802,-0.05289 -0.89961,-0.24344c-0.0749,-0.05673 -0.14642,-0.11682 -0.21501,-0.17981l-0.03697,0.05915l-1.15197,-0.71998c-0.00842,-0.00507 -0.01678,-0.01024 -0.02507,-0.01551c-0.2988,0.03912 -0.61231,0.01398 -0.93926,-0.09731z" fill="#6c6c55"/><path d="M242.88413,170.70497c0.00692,-0.05533 0.01599,-0.10789 0.02702,-0.15781c-3.11514,-1.96119 -6.6701,-3.32735 -10.35945,-2.02187c-1.76936,0.62609 -3.38582,1.73903 -5.13043,2.42871c-0.66386,0.26244 -1.3664,0.94173 -2.03065,0.68027c-0.59778,-0.2353 -1.01289,-0.53823 -1.28067,-0.88216c-0.10207,0.02693 -0.20925,0.04128 -0.31978,0.04128c-0.69036,0 -1.25,-0.55964 -1.25,-1.25v-1.31661h0.09064l-0.0745,-0.20023c0.29729,-0.89187 0.37483,-1.84486 0.461,-2.79286c-0.67119,-0.02185 -1.20859,-0.57283 -1.20859,-1.24933v-1.4629c0,0 0,-1.05397 0.9678,-1.2263c0.18084,-0.72048 0.7812,-1.46904 1.4657,-1.78693c0.96879,-0.44991 1.74973,-0.35624 2.51231,-0.08652c2.52956,-1.00683 5.59203,-0.46963 8.43092,0.39128c0.25487,-0.12444 0.48732,-0.14558 0.48732,-0.14558c2.93834,-0.26485 6.02748,0.41701 7.88641,2.58701c0.72673,0.18838 1.34537,0.4233 1.62714,0.74468c0.26989,0.30782 0.52847,0.66149 0.73358,1.04014c0.54964,0.3006 0.61869,0.99106 0.61869,0.99106l-0.00001,0.00001c0.15468,1.56283 0.15249,3.09012 0.15249,4.65937v0.14629c0,0 0,0.15054 -0.05224,0.34714c0.21726,0.30972 0.3956,0.8124 -0.04055,1.4121c-0.73521,1.01092 -1.74613,0.27571 -1.74613,0.27571c-0.07127,-0.0519 -0.14284,-0.10371 -0.21471,-0.1554l-0.66802,0.38483c0,0 -1.24035,-0.15504 -1.0853,-1.39539z" fill="#484800"/><path d="M221.40297,159.56977c-0.10523,0.02876 -0.21601,0.04412 -0.33036,0.04412c-0.69036,0 -1.25,-0.55964 -1.25,-1.25c0,-0.44077 0.22813,-0.82825 0.57276,-1.05082l0.9732,-0.6488c0.0561,-0.84089 0.5682,-1.62947 0.97084,-2.41591c-0.32321,0.03339 -0.59066,-0.05576 -0.59066,-0.05576l-1.40123,-0.46708c-0.51078,-0.15709 -0.88206,-0.63267 -0.88206,-1.19497c0,-0.53655 0.33806,-0.99415 0.8128,-1.17141l1.16344,-0.46538l0.08182,0.20454c0.13708,-0.09787 0.27416,-0.19574 0.41125,-0.29361l0.69471,0.27316c-0.03407,-0.3994 -0.0647,-0.76398 -0.06372,-1.04051l0.25321,-1.42087c0,0 0.02947,-0.16211 0.12588,-0.35792c-0.33671,-0.44202 -0.66165,-0.93037 -0.90259,-1.40507c-0.39941,-0.20865 -0.67203,-0.62681 -0.67203,-1.10864c0,-0.69036 0.55964,-1.25 1.25,-1.25c0.02679,0 0.05338,0.00084 0.07976,0.0025l0.05593,0.00311c0.3594,-0.03992 0.81834,-0.01891 1.3942,0.07746l0.6823,0.03791l-0.00581,0.10458c0.18694,0.06158 0.35639,0.16107 0.51615,0.28158c0.06301,0.00845 0.1257,0.01815 0.18804,0.02919c0.06492,-0.07545 0.1317,-0.1513 0.20038,-0.22757c0.98428,-0.35004 2.14643,-0.39912 2.94456,-1.07316c0.97531,-0.82368 1.27024,-2.93763 1.97272,-3.99015c0.61735,-0.92498 1.63318,-1.52913 2.57288,-2.12384c0.84412,-0.53423 3.02792,-2.53853 4.26959,-1.34021c2.57554,2.48562 -1.86759,4.87315 -3.76879,6.28405c0.60922,0.02965 1.21422,0.12291 1.81077,0.27786l0.05996,0.00479l-0.00086,0.01077c0.60984,0.16272 1.21068,0.38997 1.798,0.67968c0.31628,0.13277 0.66549,0.2983 1.0727,0.49879c0.32775,-0.17402 0.67699,-0.31603 1.03634,-0.41742c1.82688,-0.51544 3.0428,-0.42067 4.29371,0.02684l0.006,-0.06604l1.5965,0.14514c0.64337,0.05117 1.14952,0.58949 1.14952,1.24602c0,0.63784 -0.47774,1.16411 -1.09492,1.24047l-1.26116,0.17622c-0.54055,0.23152 -1.14759,0.35365 -1.60685,0.71892c-0.00346,0.00275 -0.00691,0.00551 -0.01033,0.00827c-0.0377,0.19208 -0.11939,0.36838 -0.23415,0.51799l-0.23574,0.31432c-0.00474,0.52584 0.45288,1.03571 0.89256,1.40726c0.20569,-0.14783 0.42756,-0.2625 0.67322,-0.32776c0.52465,-0.13938 1.02332,-0.11833 1.49453,0.02489c0.80242,-0.42235 1.66293,-0.78179 2.51658,-0.63486c0.88595,0.15249 1.47854,0.40508 1.84122,0.71345l1.49789,-0.13621c0.04233,-0.00433 0.08528,-0.00655 0.12875,-0.00655c0.21229,0 0.41222,0.05292 0.58732,0.14629h0.43671c0.69036,0 1.25,0.55964 1.25,1.25c0,0.45473 -0.24281,0.85274 -0.60585,1.07147l-1.01694,0.63559c-0.46807,0.57278 -1.79319,1.7656 -1.90739,2.81942l1.64167,0.57459c0.50169,0.1625 0.86447,0.63359 0.86447,1.18942c0,0.34818 -0.14236,0.66311 -0.37204,0.88977c0.02214,0.03376 0.04333,0.06826 0.0635,0.10355c0.14197,0.24846 0.99093,2.97638 1.08047,3.18464c0.49547,1.15241 2.25946,3.1095 0.87545,4.49257c-2.35401,2.35242 -3.4967,-1.64846 -4.28644,-2.59892c-0.0993,0.10767 -0.21404,0.20422 -0.34561,0.28814c-0.41904,0.26728 -0.91005,0.05619 -1.40402,-0.21853c0,0.00099 0,0.00198 0,0.00297c0,0.69036 -0.55964,1.25 -1.25,1.25c-0.06307,0 -0.12504,-0.00467 -0.1856,-0.01368l-2.17395,-0.28986v-0.00002c-0.56531,-0.07411 -1.09695,-0.28841 -1.5974,-0.58252l-0.16106,0.28991l-1.29479,-0.71933c-0.39545,-0.20991 -0.66477,-0.62591 -0.66477,-1.10482c0,-0.15439 0.02799,-0.30225 0.07918,-0.43877c-0.00206,-0.00124 -0.00411,-0.00248 -0.00617,-0.00372c-3.04422,-0.71113 -6.0733,-1.52764 -9.2096,-1.52589c-1.47051,0.00082 -4.89734,0.70439 -6.48506,-0.20894c-0.21248,0.16693 -0.4804,0.26648 -0.77157,0.26648c-0.08486,0 -0.16775,-0.00846 -0.24787,-0.02457l-1.28526,-0.23368l0.01909,-0.10502c-0.10433,-0.01428 -0.20687,-0.03561 -0.3072,-0.06556zM250.31231,160.1918l-0.00862,0.02875c-0.00067,0.00244 -0.00135,0.00487 -0.00203,0.0073c0.00717,0.00222 0.01431,0.00447 0.02144,0.00672c-0.00361,-0.01431 -0.00721,-0.02857 -0.01079,-0.04277z" fill="#242400"/></g></g></svg>