<svg version="1.1" xmlns="http://www.w3.org/2000/svg" xmlns:xlink="http://www.w3.org/1999/xlink" width="547" height="465" viewBox="0,0,547,465"><g transform="translate(39.5,19.5)"><g data-paper-data="{&quot;isPaintingLayer&quot;:true}" fill-rule="nonzero" stroke-linecap="butt" stroke-linejoin="miter" stroke-miterlimit="10" stroke-dasharray="" stroke-dashoffset="0" style="mix-blend-mode: normal"><path d="M-21,55v-73.5h527.5v73.5z" data-paper-data="{&quot;index&quot;:null}" fill="#4b971c" stroke="#000000" stroke-width="2"/><path d="M-19.75,347.25v-294.5h501.5v294.5z" data-paper-data="{&quot;index&quot;:null}" fill="#828282" stroke="#000000" stroke-width="2"/><path d="M-38.5,444.5v-130h527.5v130z" data-paper-data="{&quot;index&quot;:null}" fill="#4b971c" stroke="#000000" stroke-width="2"/><path d="M337.5,193.50001c-5,0 -5,-5 -5,-5l5,-6.5c7.06048,0 13.48731,1.63067 20.50128,2.52519c6.3884,0.81474 13.05774,0.47418 19.49872,0.47481c8.15872,0.00079 16.93151,0.17029 25.04603,-0.91615c4.52128,-0.60535 9.06457,-1.37925 13.38852,-2.83247c4.43715,-1.49127 7.83148,-4.7074 12.92305,-4.74936c3.46981,-0.0286 6.70216,1.80076 10.05324,2.70114c0,0 4.79683,1.41083 3.386,6.20766c-1.41083,4.79683 -6.20766,3.386 -6.20766,3.386c-2.31559,-0.76629 -4.50787,-2.26802 -6.94676,-2.29886c-0.74793,-0.00946 -9.19258,3.95789 -10.07695,4.25064c-4.91571,1.62726 -10.05901,2.55818 -15.19109,3.24662c-8.56199,1.14855 -17.76058,1.00396 -26.37437,1.00477c-6.77549,0.00064 -13.7753,0.3172 -20.50128,-0.52519c-5.49494,-0.68821 -10.57356,-1.91108 -15.92283,-2.32962c-0.74037,0.76981 -1.86563,1.35481 -3.5759,1.35481z" data-paper-data="{&quot;index&quot;:null}" fill="#ffe400" stroke="none" stroke-width="0.5"/><path d="M198.5,183.5h3c13.16667,0 26.33333,0 39.5,0c10.1732,0 20.6234,-1.13805 30.43674,1.71087c0,0 4.78913,1.43674 3.35239,6.22587c-1.43674,4.78913 -6.22587,3.35239 -6.22587,3.35239c-8.62585,-2.69903 -18.56717,-1.28913 -27.56326,-1.28913c-13.16667,0 -29.33333,0 -42.5,0c0,0 -5,0 -5,-5c0,-5 5,-5 5,-5z" data-paper-data="{&quot;index&quot;:null}" fill="#ffe400" stroke="none" stroke-width="0.5"/><path d="M74.51107,193.33259c-0.3326,-4.98892 4.65633,-5.32152 4.65633,-5.32152l5.02215,-0.33481c8.8257,-0.58596 17.4701,-0.71942 26.31045,-0.67626c3.65687,0.01786 7.37768,-0.58752 10.97032,0.09506c3.32818,0.63233 6.28895,2.52103 9.43343,3.78155c0,0 4.62339,1.90375 2.71964,6.52714c-1.90375,4.62339 -6.52714,2.71964 -6.52714,2.71964c-2.52219,-1.07282 -4.87298,-2.71152 -7.56657,-3.21845c-2.95813,-0.55671 -6.01966,0.07874 -9.02968,0.09506c-8.62584,0.04678 -17.02973,0.07731 -25.64526,0.65412l-5.02215,0.33481c0,0 -4.98892,0.3326 -5.32152,-4.65633z" data-paper-data="{&quot;index&quot;:null}" fill="#ffe400" stroke="none" stroke-width="0.5"/><path d="M-12,189.5h6c8.82139,0 18.56772,-0.85638 27.30077,0.78181c3.44405,0.64605 6.73282,1.94546 10.09923,2.91819c0,0 4.8,1.4 3.4,6.2c-1.4,4.8 -6.2,3.4 -6.2,3.4c-3.03359,-0.89394 -5.99437,-2.08844 -9.10077,-2.68181c-8.07245,-1.54197 -17.36205,-0.61819 -25.49923,-0.61819h-6c0,0 -5,0 -5,-5c0,-5 5,-5 5,-5z" data-paper-data="{&quot;index&quot;:null}" fill="#ffe400" stroke="none" stroke-width="0.5"/></g></g></svg>