<svg version="1.1" xmlns="http://www.w3.org/2000/svg" xmlns:xlink="http://www.w3.org/1999/xlink" width="46.27859" height="60.41833" viewBox="0,0,46.27859,60.41833"><g transform="translate(-218.43212,-152.92097)"><g data-paper-data="{&quot;isPaintingLayer&quot;:true}" fill-rule="nonzero" stroke="none" stroke-width="0.5" stroke-linecap="butt" stroke-linejoin="miter" stroke-miterlimit="10" stroke-dasharray="" stroke-dashoffset="0" style="mix-blend-mode: normal"><path d="M259.57083,205.6747c0.08896,0.2283 0.16627,0.46018 0.2314,0.69366l0.00013,-0.00003l0.34961,1.2819c0.03356,0.11298 0.05158,0.23264 0.05158,0.35652c0,0.69036 -0.55964,1.25 -1.25,1.25c-0.31743,0 -0.60723,-0.11832 -0.82769,-0.31327l-0.94782,-0.82934l0.13469,-0.15394c-0.74967,-0.51198 -1.19572,-1.15605 -1.90463,-2.48249c-0.02659,-0.04976 -0.05677,-0.09934 -0.08968,-0.1488c-2.46025,-0.67875 -4.30371,-3.5976 -6.64404,-4.63657c0,0 -0.09214,-0.04188 -0.21206,-0.12803c-1.73838,0.72285 -3.48489,1.42732 -5.27596,2.0257c0,0 -0.36949,0.12317 -0.76472,0.02575c-0.08688,-0.03535 -0.17527,-0.06943 -0.26494,-0.10217c-0.03709,-0.0203 -0.07372,-0.04328 -0.10959,-0.06927c0.00097,0.01037 0.00192,0.02075 0.00287,0.03114c-0.62181,-0.21734 -1.29943,-0.37101 -1.95713,-0.44391c-0.00285,0.08857 -0.01436,0.18335 -0.03608,0.28473c-0.26191,1.22225 -1.48417,0.96035 -1.48417,0.96035c-1.04914,-0.22493 -2.09552,-0.46375 -3.13649,-0.72386l-0.17302,0.03732c0,0 -0.03524,0 -0.09389,-0.00591c-0.17603,3.77076 -0.82884,6.3695 -2.94472,8.95035l0.12423,0.06902l-0.59499,1.07097c-0.2099,0.39545 -0.62591,0.66477 -1.10482,0.66477c-0.5753,0 -1.05983,-0.38865 -1.20535,-0.91771l-0.35619,-1.18733l0.06288,-0.01886l-0.10235,-0.15881c0.03632,-2.22642 1.44494,-3.6207 1.49128,-5.81596c0.00898,-0.42558 -0.73238,0.4403 -1.12593,0.60251c-0.47593,0.19617 -0.93404,0.46953 -1.44207,0.55254c-2.24057,0.36611 -4.46256,-0.14668 -4.64336,-2.80593c-0.00578,-0.08503 -0.00706,-0.17135 -0.00403,-0.25878c-0.08429,0.07852 -0.16641,0.16021 -0.24593,0.24574c-0.96954,1.04289 -0.83297,3.188 -3.59416,1.83732c-1.64594,-0.80514 -0.90517,-2.88318 -0.75912,-4.05236c0.32693,-2.61734 1.05033,-4.44531 2.34317,-6.12677c1.76826,-1.20516 3.8474,-3.0613 4.46101,-5.13542c0.52015,0.33365 0.94576,0.55538 1.09894,0.5063c0.23638,-0.07573 0.4547,-0.59076 0.23514,-0.70652c-0.21245,-0.11202 -0.49953,-0.06755 -0.75535,-0.07145l-0.1044,0.30192c-0.09929,-0.13782 -0.19477,-0.26966 -0.28654,-0.39613c-0.02904,-0.0201 -0.0558,-0.04432 -0.07986,-0.07346c-0.00079,-0.00096 -0.00158,-0.00192 -0.00237,-0.00287c0.1886,-1.16393 -0.57966,-2.06334 -1.60301,-2.52918c-0.34178,-0.79165 -0.45634,-1.63168 -0.46065,-3.0873v-0.60711c0,0 0,-1.25 1.25,-1.25l-0.00003,0.00002c0.6697,0 0.9806,0.3588 1.12494,0.69194c0.1406,-0.05477 0.29356,-0.08482 0.45355,-0.08482c0.69036,0 1.25,0.55964 1.25,1.25v1.33564h-0.03151l0.02937,0.07316c-0.10442,0.81158 -0.90821,1.9669 -0.24255,2.44278c0.41373,0.29578 1.18962,0.04967 1.44515,0.48941c0.6039,1.03923 0.33063,3.77428 -0.97908,4.3932c-0.39663,0.18743 -0.96369,0.26129 -1.56516,0.22617c-0.08166,0.34921 -0.29278,0.59553 -0.29278,0.59553l-0.85448,0.97718c-1.6145,1.39873 -2.88837,2.4218 -3.65307,4.57996c-0.13727,0.38743 -0.10086,1.663 -0.2217,2.68547c0.38964,-0.38234 0.8994,-0.62736 1.33791,-0.95514c1.63781,-1.22421 2.23499,-2.70509 3.62256,-4.12797c0,0 0.671,-0.671 1.42837,-0.25909c0.38394,-0.15963 0.77868,-0.08562 0.77868,-0.08562c0.34632,0.06524 0.69288,0.13168 1.03846,0.20283c0.11055,-0.03319 0.21832,-0.06049 0.32283,-0.08154c0.51031,-0.10279 1.11849,0.07903 1.71894,0.37159l1.36725,0.22787c0.19456,0.0289 0.37449,0.10263 0.52896,0.21035c0.20283,0.07478 0.40521,0.17062 0.60622,0.28929c1.23582,0.7296 1.47325,1.55439 1.42772,2.4677l0.58124,0.02783c0.26674,0.06672 0.53385,0.13198 0.80128,0.19592c0.20948,-0.89769 1.21192,-0.8977 1.21192,-0.8977l0.37252,0.00513c0.02329,-0.00196 0.0466,-0.00389 0.06992,-0.00582c0.19779,-0.42961 0.63208,-0.72784 1.13604,-0.72784c0.45088,0 0.846,0.23872 1.06588,0.59666l0.0181,0.02845c0.1812,0.00124 0.36218,0.00559 0.54266,0.01365l0.07327,-0.0333v-0.48404h1.33564c0.56331,0 1.03959,0.37261 1.19581,0.88482c1.50519,-0.55236 2.98478,-1.16578 4.46252,-1.78294c0.0349,-0.10754 0.08722,-0.22034 0.16079,-0.33804c0.57725,-0.9236 1.45627,-0.53948 1.67294,-0.42533c1.68421,-0.69452 3.37875,-1.36319 5.11861,-1.92154c1.48313,-0.47596 2.9748,-0.9425 4.50578,-1.24923c0.81053,-0.16239 2.43507,0.217 2.40396,-0.60905c-0.02589,-0.6872 -1.50073,-1.36731 -1.90014,-1.63249c-4.26182,-3.17781 -10.50276,0.95881 -13.28448,-4.73725c-0.41044,-0.84045 -1.07615,-1.58254 -1.2857,-2.49409c-0.45067,-1.96045 0.12505,-3.23406 0.45551,-5.06738l-0.02016,-0.01924c0,0 0,-1.25 1.25,-1.25c0.68646,0 0.99593,0.37698 1.13546,0.71689c0.42164,0.33324 0.47368,0.90563 0.47368,0.90563v0.00001c0.12439,1.38236 0.12655,2.73302 0.12655,4.12009v0.97138c0,0 0,0.42479 -0.24764,0.7791c2.54762,3.99056 8.81458,1.16428 12.82566,4.02345c1.95049,1.3053 4.47752,3.52713 1.89052,5.88508c-1.23393,1.12468 -4.53433,1.09301 -6.14098,1.56192c-1.64063,0.47883 -3.23722,1.06474 -4.8166,1.69313c1.12571,0.80839 2.23723,1.62717 3.35302,2.45287c0.09195,0.06804 0.19188,0.12854 0.29627,0.18474c1.356,-0.05456 2.69149,2.11499 3.21109,3.31684l0.09616,0.59982c0,0 0,0.12066 -0.03749,0.287z" fill="#3d3a01"/><path d="M247.95861,188.26912c-0.02482,0.06205 -0.05162,0.11945 -0.08014,0.17253c0.4803,0.38011 0.97811,0.69457 1.40939,0.9106c1.50079,0.75175 4.16611,0.19826 5.77959,0.36683c2.29034,0.23929 4.0667,0.80238 5.77016,1.81919l0.1187,-0.23738l1.67568,0.83784c0.4228,0.20043 0.71521,0.63114 0.71521,1.13014c0,0.5753 -0.38865,1.05983 -0.91771,1.20535l-1.18732,0.3562c-5.5812,1.6697 -11.29483,3.79018 -16.99948,4.88685c-2.56933,0.49393 -4.62431,0.06502 -6.82568,0.76559l-0.36571,0.41142c-0.22906,0.26011 -0.56458,0.42422 -0.93842,0.42422c-0.65654,0 -1.19485,-0.50615 -1.24602,-1.14953l-0.11992,-1.31912c-0.21666,-0.85281 -2.3695,-1.13232 -3.29464,-1.17488c-1.85617,-0.0854 -4.00971,0.39999 -5.9462,1.04738l-0.65154,0.65154c-0.2262,0.2262 -0.5387,0.36611 -0.88388,0.36611c-0.12634,0 -0.24831,-0.01874 -0.36326,-0.0536c-0.14628,0.48119 -0.27003,0.95886 -0.41889,1.33201c0,0 -0.46424,1.1606 -1.62484,0.69636c-1.1606,-0.46424 -0.69636,-1.62483 -0.69636,-1.62483c0.54696,-1.36347 0.78322,-2.84339 1.8552,-3.94089c0.8256,-0.84526 1.83904,-1.4736 2.95703,-1.94043c-0.02917,-0.10592 -0.04475,-0.21747 -0.04475,-0.33266c0,-0.37765 0.16747,-0.71617 0.43219,-0.94538l0.94254,-0.82473c0.58785,-0.58818 1.16436,-1.18801 1.72608,-1.80119c1.39139,-3.60256 -0.70641,-9.38052 4.89346,-10.29404c1.10692,-0.18058 3.4007,0.68548 4.45905,1.57722c0.48363,0.03028 0.90685,0.15011 1.12401,0.53792c0.62982,1.12475 0.55504,1.86996 0.10397,2.362c0.32169,0.1515 0.56831,0.43615 0.6688,0.78289l0.3827,-0.03493c1.03673,-0.57898 2.06522,-1.37532 3.09667,-2.1237l-0.15684,-0.13724l0.8453,-0.96606c0.2292,-0.26472 0.56773,-0.43219 0.94538,-0.43219c0.69036,0 1.25,0.55964 1.25,1.25c0,0.08487 -0.00846,0.16775 -0.02457,0.24787l-0.23843,1.31138l-0.04794,-0.00871l0.01936,0.13076c-0.08186,0.16271 -0.13677,0.32807 -0.16773,0.49488c0.35018,0.61981 0.7711,1.20356 1.24283,1.73615l0.13063,-0.09462c0,0 1.1606,0.46424 0.69635,1.62483zM239.34195,192.44033l-0.02044,0.22484c0.0675,-0.0733 0.14364,-0.1385 0.22683,-0.194c-0.06797,-0.01048 -0.13695,-0.02061 -0.20639,-0.03084zM241.3225,194.25761c0.11129,-0.03904 0.22346,-0.07679 0.33587,-0.11331c-0.09759,-0.01257 -0.19165,-0.03641 -0.28084,-0.07014zM245.5126,190.48421c0.5013,0.07685 0.99097,0.21259 1.4694,0.39084c-0.41125,-0.26744 -0.80459,-0.57048 -1.16991,-0.90227c-0.0986,0.17198 -0.19407,0.34777 -0.29949,0.51143z" fill="#6c6c55"/><path d="M243.79109,174.10565c-0.75,1 -1.75,0.25 -1.75,0.25l-0.32831,-0.26368c-0.42816,-0.23059 -0.85283,-0.45931 -1.27338,-0.688c-0.53836,0.07419 -0.98972,-0.2951 -0.98972,-0.2951c-0.33933,-0.2777 -0.67951,-0.55285 -1.02104,-0.8251c-2.13243,-1.22756 -4.12168,-2.53658 -5.8739,-4.19427c-0.2955,-0.18278 -0.59356,-0.36253 -0.89441,-0.53905l-0.02305,0.0333l-1.56374,-1.08259c-0.33369,-0.22445 -0.55324,-0.60556 -0.55324,-1.03795c0,-0.69036 0.55964,-1.25 1.25,-1.25c0.26266,0 0.5064,0.08102 0.7076,0.21942l1.41948,0.94632c2.51087,1.46538 4.83434,3.15163 7.09936,4.95787c0.96058,0.52597 1.93244,1.03238 2.90129,1.55397l0.64306,0.46486c0,0 1,0.75 0.25,1.75z" fill="#000000"/><path d="M230.61464,183.40352l0.03413,0.03021c0.70242,1.39523 1.45114,5.42727 -1.39219,5.72861c-1.22941,0.13029 -1.94957,-0.49381 -2.32309,-1.4002c-0.19477,-0.07269 -0.36655,-0.19255 -0.50142,-0.34571l-0.96723,-1.08812l0.18424,-0.16377c-0.7115,-0.73434 -0.83002,-1.49874 -0.98512,-3.3747l0.06378,-0.13267l-0.05176,-0.0074l0.21364,-1.49543c-0.16714,0.0829 -0.35547,0.1295 -0.55469,0.1295c-0.69036,0 -1.25,-0.55964 -1.25,-1.25c0,-0.19836 0.04621,-0.38594 0.12844,-0.55255l0.83878,-1.79739l0.03723,0.01737c0.0395,-0.09607 0.08294,-0.19074 0.1309,-0.28378c0.49199,-0.95432 2.76799,-2.05762 4.43453,-2.03574c2.08682,-2.4938 4.07866,-5.36286 7.12482,-3.45483c0.05036,0.03154 0.09996,0.0641 0.14886,0.09756l0.01487,-0.02974l1.43284,0.71642c0.4228,0.20043 0.71521,0.63114 0.71521,1.13014c0,0.10566 -0.01311,0.20825 -0.03779,0.30624c3.03027,0.18078 6.01625,0.34347 9.18407,-0.08791c0.20909,-0.02847 0.45072,-0.06262 0.71389,-0.09495c0.2152,-0.1754 0.48991,-0.28057 0.78919,-0.28057c0.22917,0 0.44392,0.06167 0.62859,0.16932c1.37727,-0.02836 2.82704,0.23224 3.32908,1.47749c0.17552,0.43534 0.04335,0.90345 -0.13236,1.37213l0.09278,1.29898l-0.11542,0.00825c0.39103,1.34894 0.52001,2.78713 -0.35819,3.60162c-0.7008,0.64996 -1.82991,1.394 -2.6933,0.98397c-1.10345,-0.52404 -1.08111,-1.77417 -0.69092,-3.052c-0.06189,-0.14817 -0.09606,-0.31079 -0.09606,-0.4814c0,-0.07064 0.00585,-0.1399 0.01711,-0.20734l0.02593,-0.17287c-0.18793,-0.0559 -0.35734,-0.15481 -0.49683,-0.28532c-0.21582,0.26349 -0.53715,0.43721 -0.89947,0.45664c0.13301,0.19865 0.21058,0.43756 0.21058,0.69458c0,0.44076 -0.22813,0.82825 -0.57275,1.05082l-1.02424,0.68282c-0.50742,0.46234 -2.18135,2.82992 -2.45933,2.95944c-0.13889,0.06471 -0.28069,0.12023 -0.42487,0.16826l0.02744,0.07316l-1.91578,0.71841c-0.14398,0.05786 -0.30121,0.08971 -0.46588,0.08971c-0.69036,0 -1.25,-0.55964 -1.25,-1.25c0,-0.18033 0.03819,-0.35173 0.10691,-0.50657l0.04932,-0.11837c-0.11496,0.03486 -0.23694,0.05361 -0.36329,0.05361c-0.45719,0 -0.85706,-0.24545 -1.075,-0.61176c-0.08936,0.01196 -0.17896,0.00748 -0.26913,-0.02087c-0.72563,-0.22818 -1.08443,-1.08543 -1.72907,-1.48924c-2.05183,-1.28528 -4.23656,-0.25908 -5.49831,1.43476c0.04035,0.23683 -0.00482,0.44645 -0.08369,0.62117zM236.62091,179.13343c0.26943,0.20319 0.5288,0.43138 0.79633,0.64298c-0.00298,-0.03521 -0.0045,-0.07083 -0.0045,-0.10681c0,-0.1586 0.02954,-0.31031 0.08342,-0.44991h-0.25285c-0.20128,0.01407 -0.41502,-0.01784 -0.6224,-0.08626z" fill="#484800"/><path d="M242.28776,178.71161c-2.04438,-0.05539 -3.76531,0.30978 -2.50914,2.09171c0.3648,0.51748 0.8937,0.87626 1.437,1.22302c0.27005,-0.93041 0.8106,-1.73865 1.02206,-2.85233c0.02841,-0.14962 0.04267,-0.30473 0.05008,-0.46241zM244.34024,178.87012c-0.44048,1.63436 0.54714,3.74786 -1.59007,5.18759c-0.09015,0.06073 -0.18294,0.11563 -0.27801,0.16547l0.02002,0.03433l-1.73702,1.01326c-0.18902,0.11489 -0.41094,0.18105 -0.6483,0.18105c-0.69036,0 -1.25,-0.55964 -1.25,-1.25c0,-0.31743 0.11832,-0.60723 0.31327,-0.82769l0.10848,-0.12397c-1.54024,-0.21464 -2.51833,-2.10388 -2.48343,-3.80848l-0.59456,-0.19819l0.02279,-0.06837c-0.10935,-0.01933 -0.21774,-0.04561 -0.32499,-0.08018c-0.27398,-0.08829 -0.51467,-0.26773 -0.72276,-0.51201c-0.08592,-0.03816 -0.17183,-0.07632 -0.25775,-0.11449c0,0 -1.14226,-0.50767 -0.63459,-1.64994c0.01932,-0.04347 0.03956,-0.08455 0.06062,-0.12336c-0.30363,-1.36283 -0.2344,-2.90968 0.17982,-3.56107c0.79929,-1.25695 2.54252,-1.2032 3.75046,-1.15211c1.61842,0.06845 3.2015,0.50877 4.82071,0.5848c2.23695,0.10504 5.38838,-0.56105 7.48593,0.35018c0.75861,0.32956 1.73403,0.62035 2.06258,1.3794c0.539,1.24529 -0.88677,5.07626 -2.44954,5.51945c-0.36549,0.10365 -2.92603,-0.49645 -3.7021,-0.67027c-0.39083,-0.03847 -1.20639,-0.1672 -2.15156,-0.27542zM243.33972,176.27588c0.61433,-0.27804 1.48345,-0.57609 2.13469,-0.79166c0.07951,-0.14394 0.194,-0.28456 0.35885,-0.3911c-1.4738,-0.01128 -2.94731,-0.00136 -4.41409,-0.18329c-0.01577,-0.00196 -4.6625,-0.85377 -4.79916,-0.41346c-0.28802,0.92793 0.12193,1.49375 0.30312,2.12775c0.11752,0.05226 0.23505,0.10453 0.35257,0.15679l0.01969,0.0241l0.00585,-0.0117l0.57322,0.28661c1.23468,-0.92171 3.43344,-0.96543 5.46528,-0.80404zM247.29196,175.11886c0.50167,0.35689 0.50167,1.03701 0.50167,1.03701l-0.37489,0.64847c1.22505,0.28684 3.62384,0.7144 2.9728,-1.42219c-0.15958,-0.52371 -1.08761,-0.12778 -1.63288,-0.17696c-0.48854,-0.04406 -0.97752,-0.07024 -1.4667,-0.08633z" fill="#484800"/><path d="M226.86109,164.30636c0,-0.69036 0.55964,-1.25 1.25,-1.25c0.69036,0 1.25,0.55964 1.25,1.25c0,0.69036 -0.55964,1.25 -1.25,1.25c-0.69036,0 -1.25,-0.55964 -1.25,-1.25z" fill="#000000"/><path d="M221.72469,166.46052c-0.30198,-0.14315 -0.53744,-0.40378 -0.64735,-0.72285c-0.13519,-0.19969 -0.21415,-0.44056 -0.21415,-0.69987c0,-0.60575 0.43088,-1.11087 1.00287,-1.22557l1.29258,-0.28724l0.0421,0.18945c0.32701,-0.12542 0.66047,-0.22702 1.00088,-0.2945c0.28224,-0.2805 0.53616,-0.57265 0.62481,-0.94771c0.57343,-2.42634 0.62975,-4.6367 2.21784,-6.49614l-0.37065,-0.15444c-0.46588,-0.1817 -0.79597,-0.63479 -0.79597,-1.16499c0,-0.69036 0.55964,-1.25 1.25,-1.25c0.04347,0 0.08642,0.00222 0.12874,0.00655l1.32006,0.12l-0.02951,0.32464c0.28075,-0.00577 0.53725,0.01579 0.7832,0.06588c0.21463,-0.13374 0.44313,-0.23156 0.69454,-0.26653c1.60297,-0.22294 2.12323,1.07646 3.07686,1.82286c0.39504,0.30919 0.89562,0.60046 1.44856,0.88663c0.39957,-0.77468 1.2387,-1.32268 1.79981,-2.01405l0.08078,-0.03607l-0.01656,-0.02025l1.32868,-1.0871c0.21657,-0.18 0.4949,-0.28825 0.79851,-0.28825c0.69036,0 1.25,0.55964 1.25,1.25c0,0.08249 -0.00799,0.16311 -0.02324,0.24114l-0.36005,2.04026l-0.02203,-0.00388c-0.00262,0.04593 -0.0057,0.09186 -0.00928,0.13778c-0.05291,0.67918 -0.88937,1.30841 -0.66078,1.94011c0.2206,0.14937 0.42617,0.30384 0.61205,0.46452c0.31065,0.12297 0.65312,0.20116 0.81378,0.24401h1.43509c0.0542,0 0.10759,0.00346 0.15997,0.01015l0.38056,-0.54971c0.22445,-0.3337 0.60556,-0.55323 1.03795,-0.55323c0.69036,0 1.25,0.55964 1.25,1.25c0,0.10261 -0.01236,0.20232 -0.03568,0.29775c0.24601,0.22828 0.39995,0.5544 0.39995,0.91647c0,0.2477 -0.07205,0.47859 -0.19634,0.67282c0.76837,0.13978 1.46931,0.4487 1.84585,1.12315c0.41814,0.74895 0.30264,1.85209 -0.09841,2.92523c0.59817,0.14682 1.22673,0.22921 1.89337,0.23192c1.10246,-0.29741 3.41229,-1.13823 4.45223,-0.24543c0.57725,0.49558 0.18574,1.51097 0.2373,2.27001c0.08051,1.18542 0.59024,5.77916 -0.06155,6.59062c-0.61534,0.76606 -3.10274,0.58435 -4.99497,0.38386c-0.17253,0.1755 -0.3757,0.30572 -0.626,0.36625c-0.70689,0.17095 -1.3908,-0.17286 -2.04731,-0.60824c-1.03034,-0.08695 -2.06128,-0.26959 -3.07774,-0.53943c-0.20207,0.41845 -0.63046,0.70713 -1.12628,0.70713c-0.24467,0 -0.47293,-0.0703 -0.66567,-0.1918l-2.09592,-1.27166c-0.35262,-0.2148 -0.68845,-0.42641 -1.00884,-0.63681c-1.22519,-0.25594 -2.43853,-0.56317 -3.65521,-0.8471c-0.05448,0.17777 -0.14754,0.33868 -0.26941,0.47297l-1.0896,1.21066l-0.02208,-0.01988l-0.02589,0.07028c-0.26211,0.23055 -0.54771,0.42778 -0.84546,0.60555c-0.69525,1.04308 -2.21343,1.91329 -3.35098,1.98412c-1.00833,0.93425 -2.05748,2.12759 -3.39423,2.13556c-0.56466,0.00337 -0.95764,-0.6055 -1.47219,-0.83809c-1.85311,-0.83765 -3.91436,-0.35541 -3.46871,-3.5161c0.12307,-0.87286 1.52908,-1.43419 1.88832,-2.25355c0.32902,-0.75044 0.25796,-1.61849 0.40492,-2.4246c0.15639,-0.62098 0.32922,-1.38448 0.53907,-2.14665zM250.93691,172.50319c-0.05138,-0.10499 -0.09741,-0.20795 -0.13866,-0.30935c-0.01021,0.01489 -0.02043,0.02978 -0.03064,0.04467c0.0691,0.08732 0.13264,0.1967 0.1693,0.26468z" fill="#242400"/><path d="M222.13421,201.07279l-1.53383,0.12009c0.59673,-2.49919 2.34999,-4.7382 4.04668,-6.65262c2.73978,-3.44288 7.49283,-3.55828 11.55615,-4.3957c2.24007,-0.46166 4.23377,-1.19434 6.53688,-1.19485c1.65906,-0.00036 6.25394,-0.20963 6.91277,2.24328c0.44595,1.6603 -2.13346,3.75358 -4.05771,4.32407l1.03484,0.90549c0.26472,0.2292 0.43219,0.56773 0.43219,0.94538c0,0.69036 -0.55964,1.25 -1.25,1.25c-0.28595,0 -0.54948,-0.09602 -0.7601,-0.25758l-1.08195,-0.81146c-1.00365,-0.31871 -1.9118,-0.78858 -2.02581,-1.47495c-1.59616,-1.07867 -3.16218,-2.19781 -4.82121,-3.19316c0,0 -0.23761,-0.14256 -0.42196,-0.40532c-1.48617,0.19786 -2.96354,0.29456 -4.44001,0.56731c-1.76295,0.32568 -2.39975,1.37694 -3.92244,2.09711c-0.59809,0.28287 -1.40792,0.3859 -1.73746,0.9596c-1.15671,1.29729 -2.5686,2.90334 -3.24709,4.59879c-0.01708,0.16923 -0.05511,0.28334 -0.05511,0.28334l-0.05243,0.0041c-0.08637,0.24843 -0.15598,0.49849 -0.20577,0.74951zM240.08392,191.79211c1.10783,0.72652 2.19214,1.48415 3.28846,2.22625c0.83348,-0.64616 1.82779,-1.2153 2.39979,-1.53641c0.46515,-0.26114 1.94716,-0.41245 1.46578,-0.6423c-1.15224,-0.55016 -3.35284,-0.38965 -4.49785,-0.38994c-0.89254,-0.00023 -1.78011,0.14713 -2.65617,0.3424z" fill="#6c6c55"/><path d="M225.44165,190.26866c0,-0.69036 0.55964,-1.25 1.25,-1.25c0.69036,0 1.25,0.55964 1.25,1.25c0,0.69036 -0.55964,1.25 -1.25,1.25c-0.69036,0 -1.25,-0.55964 -1.25,-1.25z" fill="#3d3a01"/><path d="M221.03689,165.3877c0,-0.69036 0.55964,-1.25 1.25,-1.25c0.69036,0 1.25,0.55964 1.25,1.25c0,0.69036 -0.55964,1.25 -1.25,1.25c-0.69036,0 -1.25,-0.55964 -1.25,-1.25z" fill="#3d3a01"/></g></g></svg>